<?xml version="1.0" encoding="UTF-8"?>
<svg id="Capa_2" data-name="Capa 2" xmlns="http://www.w3.org/2000/svg" viewBox="0 0 412.45 199.94">
  <defs>
    <style>
      .cls-1 {
        fill: #e41721;
      }
    </style>
  </defs>
  <g id="Capa_1-2" data-name="Capa 1">
    <path class="cls-1" d="M367.56,138.28c-3.11,5.87,.97,6.73,.97,6.73-.46,2.76-3.96,11.39-8.16,10.76-4.2-.64-2.31-8.4,.28-13.12,2.59-4.72,6.91-4.37,6.91-4.37Z"/>
    <path class="cls-1" d="M378.45,168.07c1.82-3.53,8.33-4.01,8.33-4.01-.59,5.17-3.69,11-5.63,10.84-1.95-.16-4.53-3.29-2.7-6.83Z"/>
    <path class="cls-1" d="M392.98,160.31c6.91-.78,15.28,1.45,17.68,2.15,1.17-4.27,1.79-8.77,1.79-13.42,0-28.11-22.79-50.9-50.9-50.9s-50.9,22.79-50.9,50.9,22.79,50.9,50.9,50.9c21.86,0,40.51-13.79,47.71-33.14-.36-.14-.76-.33-1.2-.56-7.02-3.68-15.82-2.99-15.82-2.99,0,0-1.79,10.24-5.35,15.3-3.57,5.06-8.69,5.29-11.22,2.41-2.53-2.87-4.78-10.7-1.84-15.3,2.93-4.6,14.03-5.06,14.03-5.06,.92-3.85,1.9-9.72,1.9-9.72-3.74,6.56-8.45,8.51-12.08,4.98-3.62-3.54-.8-12.75-.8-12.75-2.42,2.65-4.61,2.53-4.61,2.53-1.72,7.42-6.21,13.87-11.96,15.71-5.75,1.84-11.39-1.15-9.72-10.7,1.66-9.55,7.7-18.3,15.82-18.99,8.11-.69,6.61,10.57,6.61,10.57,0,0,.81,.48,2.65-.9,1.84-1.38,3.91-5.01,5.64-7.88,1.73-2.88,6.73-4.03,7.59-1.9,.86,2.13-.35,4.43-2.13,8.63-1.78,4.2-4.08,11.39-2.41,11.73,1.66,.35,2.12,.29,4.83-3.39,2.7-3.68,5.46-11.68,6.67-14.73,1.21-3.05,5.87-3.91,6.39-2.82,.51,1.1-.69,3.68-2.71,8.75-2.01,5.06-6.56,20.59-6.56,20.59Zm-38-31.92c-1.6,6.27-5.89,12.15-9.39,13.83-3.49,1.68-6.28-2.34-4.8-3.42,0,0,8.59-5.97,9.39-10.04,.8-4.08-1.82-5.9-7.5-1.75s-8.81,12.58-6.7,15.21,11.36,5.98,8.45,14.57c-2.92,8.59-13.33,10.85-19.08,8.08-5.75-2.76-6.41-5.68-4.95-8.52,1.45-2.84,2.62-.14,4.37,1.83,1.74,1.96,8.95,2.76,11.14-.73,2.18-3.5,.51-5.83-3.21-8.45-3.71-2.62-7.13-3.42-6.55-11.87,.58-8.45,7.35-17.98,16.75-20.1,9.39-2.11,13.69,5.1,12.08,11.36Z"/>
    <path d="M85.95,49.05c-2.21-.36-3.44,0-5.9,3.81-2.46,3.81-8.37,8.37-9.48,8.25-1.1-.13,.99-4.55,3.32-9.6,2.34-5.04,8.86-15.38,8.61-17.34-.24-1.97-6.4-1.6-8.73-1.36-2.34,.25-3.2,2.58-5.79,8.62-2.58,6.03-9.59,17.59-13.03,19.44-3.44,1.86-4.55,.73-4.06-2.34,.49-3.08,5.54-12.42,8.37-16.98,2.82-4.55-.86-4.55-5.04-4.79-4.18-.25-5.54,2.21-9.1,9.59-3.57,7.38-10.09,13.28-11.94,14.27-1.86,.98-1.84-.37,3.57-12.55,.9-2.03,1.88-4.15,2.88-6.29,.03-.08,.07-.15,.1-.23,2.89-6.73,6.21-13.48,9.15-19.17,12.71-1.11,23.76-1.28,26.23-1.88,3.36-.82,3.18-4.55,2.6-7.01-.58-2.45-6.07-1.99-6.07-1.99,0,0-7.46,.09-17.49,1.03,1.43-2.58,2.4-4.28,2.66-4.71,.04-.07,.06-.11,.06-.11,1.1-2.19,2.33-4.71,2.77-5.9,.86-2.34-3.81-1.92-7.39-1.48-3.56,.45-4.17,3.08-4.17,3.08,0,0-2.86,5.19-5.79,10.54-9.49,1.41-19.53,3.63-27.22,7.12C-2.47,29.06-.61,32.53,.96,32.65s16.13-5.94,33.83-8.62c.74-.11,1.49-.22,2.23-.32-.1,.19-.19,.36-.28,.52-.06,.13-.13,.26-.2,.4-1.28,2.6-3.21,6.53-5.22,10.76-.1,.22-.2,.43-.3,.64-3.25,6.91-6.64,14.46-7.68,18.2-2.21,7.87-1.6,15.24,5.41,14.38,7.02-.86,11.81-6.52,11.81-6.52,0,3.2,1.6,7.14,8.61,7.01,7.02-.12,10.46-5.03,10.46-5.03,1.69,5.98,5.54,7.13,11.68,4.17,6.15-2.94,13.04-11.43,15.12-13.89,2.09-2.46,1.73-4.93-.49-5.3Z"/>
    <path d="M348.21,38.9c2.42-12.82-10.4-16.97-25.81-3.29-15.41,13.68-26.15,37.75-26.15,37.75-2.94-3.46-8.14-2.6-10.04,2.08-1.91,4.68,3.63,9.01,3.63,9.01-1.55,7.79-8.65,16.97-22.34,20.6-13.68,3.64-17.31-6.4-17.31-6.4,0,0,20.08-.35,26.15-12.47,6.06-12.12-7.1-28.06-24.77-16.97-17.66,11.08-16.77,30.65-16.77,30.65-10.37,10.56-17.52,10.74-17.34,5.71,.17-5.02,12.46-14.02,11.77-23.03-.69-9-7.79-10.39-15.58-7.79-7.56,2.52-17.54,10.72-18.16,11.23,.75-.72,21.09-20.11,29.41-31.67,8.49-11.77,15.59-31,3.29-29.44-12.29,1.56-18.7,6.41-28.23,23.73-9.52,17.32-14.02,34.98-34.11,60.26-20.09,25.29-48.84,38.45-65.46,31-16.63-7.44-18.19-32.21,5.37-68.06,23.55-35.84,52.3-55.76,61.13-58.18,8.83-2.43,9.87,2.94,6.06,13.68-3.81,10.73-21.06,30.12-21.48,30.48-7.1,6.23-12.29,5.37-6.92,12.98,5.37,7.62,11.08,6.07,24.07-7.96,12.99-14.03,31.69-56.46,7.79-60.44-23.9-3.98-53.68,21.65-88.15,66.33-34.46,44.68-23.78,75.68-8.48,86.07,15.3,10.39,47.45,1.56,68.58-16.97,21.12-18.54,53.51-49.36,59.74-53.17,6.24-3.81,9.7-2.08,7.8,2.48-1.91,4.56-9.7,12.76-12.47,18.3-2.77,5.54-3.81,17.32,10.22,16.11,14.02-1.22,22.87-15.42,22.87-15.42,0,0,3.79,9.18,16.98,10.91,12.49,1.65,21.81-6.66,22.76-7.53-.5,.62-3.23,4.55-5.12,17.58-2.08,14.37,.87,25.8,9.18,26.32,8.31,.52,15.93-4.67,23.21-21.3,7.27-16.62,5.71-32.38,5.71-32.38,0,0,3.98,4.5,12.82,3.96,8.83-.54,8.65-8.64,8.65-8.64-19.91,2.08-23.89-6.41-23.89-6.41,21.64-17.14,38.96-36.88,41.39-49.7Zm-130.98,3.5c7.29-6.97,9.08-4.54,6,3.09-3.08,7.62-15.71,20.41-20.75,24.31,.22-.63,7.56-20.53,14.75-27.4Zm31.05,50.41s0-6.91,9.57-14.3c9.58-7.39,14.54,4,7.76,9.33-6.79,5.34-17.33,4.97-17.33,4.97Zm39.14,41.81c-3.51,1.09-4.6-2.3-3.03-12.48,1.58-10.18,13.47-24,13.47-24,1.35,19.39-6.92,35.39-10.44,36.48Zm17.45-53.56s14.06-26.18,20.73-33.69c6.66-7.52,11.27-9.09,11.51-4.49,.24,4.61-19.88,29.81-32.24,38.18Z"/>
    <path class="cls-1" d="M147.04,182.42s23.17-22.16,56.4-32.57c33.24-10.41,52.71-9.57,57.75-12.59,5.04-3.02,1.85-5.17-2.35-6.53-4.2-1.36-62.78,.65-98.04,16.94-35.25,16.28-39.62,31.39-37.6,36.09,2.01,4.7,13.78,6.96,23.84-1.34Z"/>
  </g>
</svg>